# xmcd CD Database Entry
#
# Track frame offsets:
# 150
# 14092
# 30615
# 50130
# 68692
# 91095
# 114880
# 130342
# 148650
# 165205
# 188122
# 205562
#
# Disc length: 2930 seconds
#
# Revision: 1
# Processed by: cddbd v1.4PL0 Copyright (c) Steve Scherf et al.
# Submitted via: tcd 2.0b
#
DISCID=9b0b700c
DTITLE=Janis Ian - breaking silence
DYEAR=1900
DGENRE=
TTITLE0=All roads to the river
TTITLE1=Ride me like a wave
TTITLE2=Tattoo
TTITLE3=Guess you had to be there
TTITLE4=What about the love
TTITLE5=His hands
TTITLE6=Walking on sacred ground
TTITLE7=This train still runs
TTITLE8=Through the years
TTITLE9=This house
TTITLE10=Some people's lives
TTITLE11=Breaking silence
EXTD=24K Gold Limited Edition\nMastered by Doug Sax.
EXTT0=
EXTT1=
EXTT2=
EXTT3=
EXTT4=
EXTT5=
EXTT6=
EXTT7=
EXTT8=
EXTT9=
EXTT10=
EXTT11=
PLAYORDER=
